<svg width="105" height="105" viewBox="0 0 105 105" fill="none" xmlns="http://www.w3.org/2000/svg">
<path d="M53.8078 45.9983H52.8162H31.8438L15.1115 68.3807L53.4949 105L55.0762 103.491L91.8749 68.3807L75.1458 45.9983H53.8078ZM71.4364 50.3978L68.3463 63.7503L57.4122 50.3978H71.4364ZM53.3399 51.6699L65.2361 66.1889H41.6976L53.3399 51.6699ZM49.2846 50.3978L38.6237 63.6959V63.6992L35.5532 50.398H49.2846V50.3978ZM32.0878 53.1471L35.1022 66.1889H22.3363L32.0878 53.1471ZM36.3177 70.0853L46.8732 92.5254L23.3508 70.0853H36.3177ZM53.4949 97.2422L40.7191 70.0853H66.2674L53.4949 97.2422ZM60.1133 92.5254L70.6687 70.0853H83.6322L60.1133 92.5254ZM71.8845 66.1889L74.9023 53.1471L84.6504 66.1889H71.8845Z" fill="white"/>
<path d="M104.203 37.305C98.7408 37.305 96.8531 35.972 95.789 34.9403C94.7314 33.9052 93.3577 32.0692 93.3577 26.7564C93.3577 26.5546 93.3379 25.981 92.6856 25.981C92.0366 25.981 92.0134 26.5546 92.0134 26.7564C92.0134 32.0692 90.6396 33.9052 89.5788 34.9403C88.5147 35.972 86.6236 37.305 81.168 37.305C80.9572 37.305 80.3708 37.3274 80.3708 37.9619C80.3708 38.5931 80.9572 38.6157 81.168 38.6157C86.6236 38.6157 88.5147 39.952 89.5788 40.9837C90.6396 42.0155 92.0134 43.8548 92.0134 49.1676C92.0134 49.3726 92.0364 49.9399 92.6856 49.9399C93.3379 49.9399 93.3577 49.3726 93.3577 49.1676C93.3577 43.8548 94.7316 42.0155 95.789 40.9837C96.8531 39.9487 98.7408 38.6157 104.203 38.6157C104.414 38.6157 105 38.5964 105 37.9588C105 37.3307 104.414 37.305 104.203 37.305Z" fill="white"/>
<path d="M22.959 17.3611C30.4669 17.3611 33.063 19.2004 34.5225 20.6167C35.9819 22.0363 37.8662 24.5645 37.8662 31.8671C37.8662 32.1458 37.9059 32.9278 38.7952 32.9278C39.6913 32.9278 39.7176 32.1458 39.7176 31.8671C39.7176 24.5645 41.6053 22.0361 43.0648 20.6167C44.5209 19.1972 47.117 17.3611 54.6283 17.3611C54.9148 17.3611 55.7221 17.3355 55.7221 16.4639C55.7221 15.5987 54.915 15.5603 54.6283 15.5603C47.117 15.5603 44.5209 13.7273 43.0648 12.311C41.6053 10.8882 39.7176 8.36657 39.7176 1.06374C39.7176 0.785039 39.6913 0 38.7952 0C37.9057 0 37.8662 0.785039 37.8662 1.06395C37.8662 8.36657 35.9817 10.8884 34.5225 12.3113C33.063 13.7275 30.4671 15.5605 22.959 15.5605C22.6724 15.5605 21.8651 15.5958 21.8651 16.4641C21.8651 17.3291 22.6722 17.3611 22.959 17.3611Z" fill="white"/>
<path d="M22.6558 40.1954C22.6558 39.6154 22.1154 39.5928 21.9243 39.5928C16.9004 39.5928 15.1609 38.3657 14.1858 37.4172C13.2106 36.4654 11.9455 34.7768 11.9455 29.8902C11.9455 29.7044 11.9257 29.1788 11.3261 29.1788C10.733 29.1788 10.7066 29.7044 10.7066 29.8902C10.7066 34.7768 9.44494 36.4656 8.46979 37.4172C7.49127 38.3657 5.75181 39.5928 0.731205 39.5928C0.537018 39.593 0 39.6154 0 40.1954C0 40.7753 0.537018 40.7979 0.731416 40.7979C5.75223 40.7979 7.49169 42.0284 8.47 42.9768C9.44515 43.9253 10.7068 45.6172 10.7068 50.5071C10.7068 50.6929 10.7332 51.2152 11.3263 51.2152C11.9259 51.2152 11.9458 50.6929 11.9458 50.5071C11.9458 45.6172 13.2108 43.9253 14.186 42.9768C15.1611 42.0251 16.9006 40.7979 21.9246 40.7979C22.1156 40.7979 22.6558 40.7786 22.6558 40.1954Z" fill="white"/>
</svg>
