<svg width="82" height="80" viewBox="0 0 82 80" fill="none" xmlns="http://www.w3.org/2000/svg">
<path fill-rule="evenodd" clip-rule="evenodd" d="M68.3333 3.33325C73.9944 3.33325 78.5833 7.81042 78.5833 13.3333V66.6666C78.5833 72.1896 73.9944 76.6666 68.3333 76.6666H13.6666C8.00572 76.6666 3.41663 72.1896 3.41663 66.6666V13.3333C3.41663 7.81042 8.00572 3.33325 13.6666 3.33325H68.3333ZM68.3333 9.99992C70.2203 9.99992 71.75 11.4923 71.75 13.3333V66.6666C71.75 68.5076 70.2203 69.9999 68.3333 69.9999H51.25V46.6663H58.3437C59.8142 46.6663 61.1197 45.7483 61.585 44.3869L63.0986 39.9569C63.6518 38.3379 62.4167 36.6663 60.6677 36.6663H51.25V29.9997C51.25 28.333 52.9583 26.6663 54.6666 26.6663H61.5C63.387 26.6663 64.9166 25.1739 64.9166 23.333V21.0464C64.9166 19.9696 64.2118 19.0043 63.1444 18.7295C58.6658 17.5764 54.6666 17.5764 54.6666 17.5764C46.125 17.5764 41 23.333 41 28.333V36.6663H34.1666C32.2797 36.6663 30.75 38.1586 30.75 39.9996V43.3329C30.75 45.1739 32.2796 46.6663 34.1666 46.6663H41V69.9999H13.6666C11.7797 69.9999 10.25 68.5076 10.25 66.6666V13.3333C10.25 11.4923 11.7797 9.99992 13.6666 9.99992H68.3333Z" fill="#482A13"/>
</svg>
