<svg width="59" height="47" viewBox="0 0 59 47" fill="none" xmlns="http://www.w3.org/2000/svg">
<path d="M29.0856 46.6636C28.3121 46.6636 27.5702 46.3124 27.0232 45.6873C26.4763 45.0622 26.169 44.2143 26.169 43.3303C26.169 42.4462 26.4763 41.5984 27.0232 40.9732C27.5702 40.3481 28.3121 39.9969 29.0856 39.9969C29.8592 39.9969 30.601 40.3481 31.148 40.9732C31.695 41.5984 32.0023 42.4462 32.0023 43.3303C32.0023 44.2143 31.695 45.0622 31.148 45.6873C30.601 46.3124 29.8592 46.6636 29.0856 46.6636ZM22.9431 38.1569C22.5834 38.9194 21.9781 39.4918 21.2554 39.753C20.5327 40.0142 19.7495 39.9436 19.0716 39.5562C18.3936 39.1688 17.8743 38.4951 17.6235 37.6776C17.3728 36.8602 17.4103 35.9633 17.7281 35.1769C18.7838 32.7678 20.4053 30.7419 22.4112 29.3262C24.417 27.9104 26.7281 27.1605 29.0856 27.1605C31.4432 27.1605 33.7542 27.9104 35.7601 29.3262C37.766 30.7419 39.3875 32.7678 40.4431 35.1769C40.6285 35.5698 40.743 36.0013 40.7797 36.4458C40.8164 36.8902 40.7746 37.3385 40.6569 37.7642C40.5391 38.1898 40.3477 38.5841 40.0941 38.9235C39.8404 39.263 39.5297 39.5408 39.1803 39.7405C38.8309 39.9401 38.45 40.0575 38.0602 40.0857C37.6704 40.1139 37.2796 40.0524 36.911 39.9047C36.5424 39.757 36.2035 39.5262 35.9144 39.2259C35.6253 38.9257 35.3919 38.5622 35.2281 38.1569C34.659 36.8516 33.7827 35.7535 32.6976 34.986C31.6126 34.2184 30.3617 33.8118 29.0856 33.8118C27.8095 33.8118 26.5587 34.2184 25.4737 34.986C24.3886 35.7535 23.5123 36.8516 22.9431 38.1569ZM13.919 28.6736C13.6892 29.0238 13.4012 29.3188 13.0717 29.5418C12.7421 29.7649 12.3773 29.9115 11.9981 29.9734C11.2323 30.0984 10.4545 29.8707 9.83564 29.3403C9.2168 28.8098 8.80768 28.0202 8.69828 27.145C8.64412 26.7117 8.66516 26.2704 8.76022 25.8463C8.85528 25.4223 9.02249 25.0238 9.2523 24.6736C11.5627 21.1565 14.5575 18.3021 17.9998 16.3362C21.4421 14.3703 25.2375 13.3469 29.0856 13.3469C32.9338 13.3469 36.7292 14.3703 40.1715 16.3362C43.6138 18.3021 46.6086 21.1565 48.919 24.6736C49.1488 25.0238 49.316 25.4223 49.4111 25.8463C49.5061 26.2704 49.5272 26.7117 49.473 27.145C49.4188 27.5783 49.2905 27.9952 49.0954 28.3719C48.9002 28.7486 48.6421 29.0776 48.3356 29.3403C48.0292 29.6029 47.6805 29.794 47.3095 29.9026C46.9385 30.0113 46.5523 30.0353 46.1732 29.9734C45.794 29.9115 45.4292 29.7649 45.0996 29.5418C44.77 29.3188 44.4821 29.0238 44.2523 28.6736C42.4853 25.9845 40.1951 23.8021 37.5628 22.2991C34.9304 20.796 32.0282 20.0136 29.0856 20.0136C26.1431 20.0136 23.2408 20.796 20.6085 22.2991C17.9762 23.8021 15.686 25.9845 13.919 28.6736ZM5.00272 18.9069C4.47675 19.5221 3.76309 19.8811 3.01092 19.9088C2.25875 19.9366 1.52629 19.6311 0.966654 19.0561C0.407017 18.481 0.0635188 17.681 0.00796373 16.8233C-0.0475914 15.9656 0.189097 15.1165 0.668552 14.4536C14.794 -3.46974 38.9644 -4.92307 54.6619 11.2103C55.6594 12.2336 56.6073 13.3169 57.5027 14.4536C57.759 14.7788 57.9566 15.1586 58.0845 15.5711C58.2123 15.9837 58.2678 16.421 58.2477 16.858C58.2277 17.2951 58.1325 17.7233 57.9677 18.1184C57.8028 18.5134 57.5715 18.8674 57.2869 19.1603C57.0023 19.4531 56.67 19.679 56.3091 19.8251C55.9481 19.9712 55.5654 20.0346 55.183 20.0117C54.8006 19.9888 54.4259 19.88 54.0802 19.6916C53.7346 19.5032 53.4248 19.2388 53.1686 18.9136C52.4091 17.9473 51.6049 17.0282 50.7594 16.1603C37.4594 2.49026 16.9727 3.71359 5.00272 18.9069Z" fill="white"/>
</svg>
