<svg width="60" height="66" viewBox="0 0 60 66" fill="none" xmlns="http://www.w3.org/2000/svg">
<path d="M14.6534 24.6067C15.0334 30.21 12.0734 34.99 8.03337 35.28C4.00004 35.57 0.416704 31.2633 0.0333708 25.6567C-0.349963 20.0533 2.61337 15.2733 6.65004 14.9833C10.6867 14.6933 14.2734 19 14.6534 24.6067ZM42.4534 1.37333C38.5334 0.346667 34.26 3.93 32.9134 9.37333C31.56 14.8167 33.6434 20.0633 37.5634 21.09C41.4867 22.1167 45.7634 18.5333 47.11 13.09C48.8667 6 43.3934 1.61667 42.4534 1.37333ZM51.6534 19.7267C47.5267 19.7867 44.2534 23.8133 44.3434 30.0467C44.4334 36.28 47.8434 39.12 51.9767 39.0567C56.0967 38.9933 59.3767 36.0533 59.2834 29.8167C59.1634 21.7033 52.6434 19.71 51.6534 19.7267ZM21.76 0C17.8367 0 14.6534 4.51333 14.6534 10.0767C14.6534 15.6433 17.8367 20.1533 21.76 20.1533C25.6867 20.1533 28.87 15.6433 28.87 10.0767C28.87 4.51 25.6867 0 21.76 0ZM20.8534 31.2967C18.5867 34.6367 16.0134 37.8967 11.02 42.17C6.03004 46.4433 3.91337 49.3933 3.91337 53.7433C3.91337 58.09 6.33337 65.3133 13.2134 65.3133C20.0967 65.3133 23.4234 63.76 28.87 63.76C34.3134 63.76 37.9467 65.9333 44.8267 65.9333C51.7067 65.9333 54.58 59.2567 54.58 54.9067C54.58 50.5567 53.3867 48.0967 47.8734 43.1333C44.34 39.95 41.3467 37.3567 36.6567 30.6767C34.34 27.3767 31.6667 26.95 28.87 26.95C26.07 26.95 23.1234 27.9567 20.8534 31.2967Z" fill="white"/>
</svg>
