<svg width="80" height="78" viewBox="0 0 80 78" fill="none" xmlns="http://www.w3.org/2000/svg">
<path d="M73.8164 2.78V13.7545C75.3317 15.4613 77.54 16.5361 79.9998 16.5361V0C77.5402 0 75.3317 1.07484 73.8164 2.78Z" fill="white"/>
<path d="M21.799 28.4394C21.1759 29.5699 21.5854 30.9899 22.7173 31.6144L49.8288 46.5653C50.9593 47.1869 52.3808 46.776 53.0054 45.6455L54.0876 43.6813L22.8812 26.4753L21.799 28.4394Z" fill="white"/>
<path d="M49.3406 24.3999L50.2416 22.7679C50.7036 21.9314 50.3994 20.8784 49.5614 20.4162L44.9738 17.886C44.1356 17.4239 43.0828 17.7282 42.6222 18.566L41.7213 20.1998C35.2177 18.4345 28.2225 20.4118 23.6099 25.3067L54.6875 42.4426C56.3635 35.9287 54.3042 28.9585 49.3406 24.3999Z" fill="white"/>
<path d="M0.246524 52.095C-0.281601 53.056 0.0665236 54.2625 1.02605 54.7919C1.98684 55.3213 3.1934 54.9718 3.72293 54.0124C4.25231 53.053 3.69215 49.9569 3.69215 49.9569C3.69215 49.9569 0.775899 51.1357 0.246524 52.095Z" fill="white"/>
<path d="M10.4414 57.7169C9.91201 58.6762 10.2615 59.8844 11.2209 60.4122C12.1819 60.9415 13.3869 60.5936 13.9162 59.6328C14.4456 58.6734 13.887 55.5787 13.887 55.5787C13.887 55.5787 10.9709 56.7559 10.4414 57.7169Z" fill="white"/>
<path d="M20.6347 63.337C20.1068 64.2965 20.4564 65.5045 21.4156 66.0339C22.375 66.5633 23.5831 66.2153 24.1125 65.2543C24.6418 64.295 24.0803 61.2004 24.0803 61.2004C24.0804 61.199 21.1642 62.3778 20.6347 63.337Z" fill="white"/>
<path d="M30.8314 68.9591C30.302 69.9184 30.65 71.1264 31.6094 71.6558C32.5689 72.1853 33.7769 71.8358 34.3062 70.875C34.8356 69.9155 34.2756 66.8209 34.2756 66.8209C34.2756 66.8209 31.3608 67.9995 30.8314 68.9591Z" fill="white"/>
<path d="M41.0249 74.5808C40.4952 75.5402 40.8434 76.7481 41.8042 77.2761C42.7636 77.8055 43.9716 77.4559 44.5009 76.4966C45.0291 75.537 44.4703 72.4425 44.4703 72.4425C44.4703 72.4425 41.5542 73.6213 41.0249 74.5808Z" fill="white"/>
<path d="M11.1902 48.4139C12.1496 48.9433 13.3576 48.5938 13.8871 47.6346C14.4165 46.6736 13.8565 43.5791 13.8565 43.5791C13.8565 43.5791 10.9402 44.7579 10.4108 45.7172C9.88271 46.678 10.2308 47.8846 11.1902 48.4139Z" fill="white"/>
<path d="M21.385 54.0358C22.3444 54.5651 23.551 54.2156 24.0803 53.2548C24.6097 52.2955 24.0511 49.2009 24.0497 49.2009C24.0497 49.2009 21.135 50.3797 20.6055 51.3391C20.0761 52.2984 20.4242 53.5064 21.385 54.0358Z" fill="white"/>
<path d="M31.58 59.6559C32.5394 60.1855 33.7459 59.8374 34.2753 58.8766C34.8047 57.9172 34.2447 54.8225 34.2447 54.8225C34.2447 54.8225 31.3284 55.9997 30.7991 56.9606C30.2695 57.9202 30.6192 59.1266 31.58 59.6559Z" fill="white"/>
<path d="M41.7737 65.2778C42.7331 65.8059 43.9411 65.4578 44.4705 64.4982C45 63.5389 44.4384 60.4443 44.4384 60.4443C44.4384 60.4443 41.5237 61.6215 40.9942 62.5811C40.4647 63.5404 40.8142 64.7484 41.7737 65.2778Z" fill="white"/>
<path d="M23.5452 42.1706C24.0746 41.2111 23.5159 38.1166 23.5159 38.1166C23.5159 38.1166 20.5998 39.2941 20.0704 40.2549C19.541 41.2158 19.8891 42.4222 20.8484 42.9502C21.8093 43.4795 23.0159 43.1316 23.5452 42.1706Z" fill="white"/>
<path d="M33.7401 47.7925C34.2695 46.8329 33.7095 43.7384 33.7095 43.7384C33.7095 43.7384 30.7932 44.9157 30.2638 45.8767C29.7345 46.8361 30.084 48.0426 31.0448 48.572C32.004 49.1014 33.2121 48.7532 33.7401 47.7925Z" fill="white"/>
<path d="M43.9351 53.4142C44.4645 52.4533 43.9029 49.3588 43.9029 49.3588C43.9029 49.3588 40.9868 50.5375 40.4573 51.4969C39.9293 52.4563 40.2788 53.6644 41.2382 54.1938C42.1977 54.7231 43.4057 54.3736 43.9351 53.4142Z" fill="white"/>
<path d="M56.7582 7.57113C52.6076 9.3277 49.0846 12.2541 46.594 15.941C46.499 16.0814 46.4083 16.2247 46.3162 16.3682L50.3351 18.5824C50.3351 18.5824 50.3365 18.5839 50.3379 18.5852C51.6774 16.5802 53.3974 14.8471 55.3952 13.4988C58.3552 11.4996 61.9076 10.3368 65.7526 10.3339H71.7954V5.75488H65.7526C62.5671 5.75488 59.5223 6.40129 56.7582 7.57113Z" fill="white"/>
</svg>
