<svg width="80" height="80" viewBox="0 0 80 80" fill="none" xmlns="http://www.w3.org/2000/svg">
<path d="M28.9796 80C28.6395 80 28.4354 79.9244 28.1633 79.7732C26.9388 78.8658 21.1565 74.1021 25.9864 64.6503C27.2789 62.0794 27.619 60.0378 27.1429 58.3743C26.5986 56.4839 24.8299 55.7278 24.8299 55.7278C24.0136 55.3497 23.6054 54.2911 23.9456 53.3837C24.2177 52.6276 24.7619 52.1739 25.4422 52.1739C25.6463 52.1739 25.8503 52.2495 26.0544 52.3251C26.3265 52.3251 29.1837 53.6862 30.3401 57.0888C31.2245 59.811 30.7483 62.9868 28.9116 66.5406C25.5102 73.1947 29.1156 76.1437 29.8639 76.673C30.6122 77.1267 30.8844 78.2609 30.4762 79.1682C30.068 79.7732 29.4558 80 28.9796 80ZM40 75.9924C39.6599 75.9924 39.4558 75.9168 39.1837 75.7656C36.7347 74.1777 33.2653 69.2628 37.1429 61.5501C38.2993 59.2061 38.6395 57.3157 38.1633 55.879C37.6871 54.2155 36.1225 53.535 36.1225 53.535C35.2381 53.1569 34.8299 52.1739 35.1701 51.1909C35.4422 50.4348 35.9864 49.9811 36.6667 49.9811C36.8708 49.9811 37.0748 50.0567 37.2789 50.1323C37.9592 50.4348 40.3401 51.6446 41.2925 54.6692C42.1088 57.2401 41.7007 60.189 40 63.4405C36.7347 69.9433 40.6803 72.5898 40.8844 72.6654C41.2245 72.8923 41.4966 73.2703 41.6327 73.724C41.7687 74.1777 41.7007 74.707 41.4966 75.1607C41.0884 75.7656 40.4762 75.9924 40 75.9924ZM17.415 75.9924C17.0748 75.9924 16.8707 75.9168 16.5986 75.7656C14.1497 74.1777 10.6803 69.2628 14.5578 61.5501C15.7143 59.2061 16.0544 57.3157 15.5782 55.879C15.102 54.2155 13.5374 53.535 13.5374 53.535C12.6531 53.1569 12.2449 52.1739 12.585 51.1909C12.8571 50.4348 13.4014 49.9811 14.0816 49.9811C14.2857 49.9811 14.4898 50.0567 14.6939 50.1323C15.3741 50.4348 17.7551 51.7202 18.7075 54.6692C19.5238 57.2401 19.0476 60.189 17.415 63.5161C14.1497 70.0189 18.0952 72.6654 18.2993 72.741C18.6395 72.9679 18.9116 73.3459 19.0476 73.7996C19.1837 74.2533 19.1156 74.7826 18.9116 75.2363C18.5714 75.7656 17.8912 75.9924 17.415 75.9924ZM58.8435 69.2628C58.2993 69.2628 57.8912 69.0359 57.551 68.6578C57.2109 68.2798 57.0068 67.7505 57.0068 67.2212C57.0068 66.3894 57.483 65.6333 58.1633 65.2552H58.2313V61.172L54.7619 63.3648V63.4405C54.7619 64.0454 54.5578 64.8015 53.8775 65.1796C53.6054 65.4064 53.2653 65.482 52.9252 65.482C52.2449 65.482 51.6327 65.104 51.3605 64.4991C51.0884 63.9698 51.0204 63.4405 51.1565 62.9112C51.2925 62.3819 51.5646 61.9282 52.0408 61.7013C52.3129 61.4745 52.6531 61.3989 52.9252 61.3989C53.2653 61.3989 53.6054 61.4745 53.8775 61.7013L57.0068 59.7354L53.9456 57.7694C53.5374 57.9206 53.1973 57.9962 52.9252 57.9962C52.585 57.9962 52.3129 57.9206 52.0408 57.7694C51.2245 57.1645 50.8844 55.879 51.3605 54.9716C51.7007 54.3667 52.3129 53.9887 52.9932 53.9887C53.3333 53.9887 53.6735 54.0643 53.9456 54.2911C54.4898 54.6692 54.8299 55.2741 54.8299 56.0302V56.1059L58.2993 58.2987V54.2155H58.2313C57.551 53.8374 57.0748 53.0813 57.0748 52.2495C57.0748 51.1153 57.8912 50.2079 58.9116 50.2079C59.4558 50.2079 59.932 50.4348 60.2721 50.8129C60.6122 51.1909 60.8163 51.7202 60.8163 52.2495C60.8163 52.9301 60.4762 53.6106 59.8639 53.9887H59.6599V57.9206L62.6531 56.0302V55.9546C62.6531 55.3497 62.8571 54.5936 63.5374 54.2155C63.8095 53.9887 64.1497 53.913 64.4898 53.913C65.1701 53.913 65.7823 54.2911 66.0544 54.896C66.3265 55.4253 66.3946 55.9546 66.2585 56.4839C66.1224 57.0132 65.8503 57.4669 65.3741 57.6938C65.102 57.9206 64.7619 57.9962 64.4898 57.9962C64.1497 57.9962 63.8095 57.9206 63.5374 57.6938L60.4082 59.6597L63.4694 61.6257C63.8775 61.4745 64.2177 61.3989 64.4898 61.3989C64.8299 61.3989 65.102 61.4745 65.3741 61.6257C66.1905 62.2306 66.5306 63.5161 66.0544 64.4234C65.7143 65.0284 65.102 65.4064 64.4218 65.4064C64.0816 65.4064 63.7415 65.3308 63.4694 65.104C62.9252 64.7259 62.585 64.121 62.585 63.3648V63.2892L59.6599 61.4745V65.4064H59.7279C60.3401 65.7089 60.6803 66.3894 60.6803 67.1456C60.6803 68.3554 59.8639 69.2628 58.8435 69.2628ZM9.31973 45.3686C4.14966 45.3686 0 40.7561 0 35.0095V10.3592C0 4.61248 4.14966 0 9.31973 0H70.6803C75.8503 0 80 4.61248 80 10.3592V35.0095C80 40.7561 75.8503 45.3686 70.6803 45.3686H9.31973ZM8.36735 4.53686C5.91837 4.53686 3.94558 6.80529 3.94558 9.67864V35.9924C3.94558 38.7902 5.91837 41.1342 8.36735 41.1342H71.5646C74.0136 41.1342 75.9864 38.8658 75.9864 35.9924V9.67864C75.9864 6.88091 74.0136 4.53686 71.5646 4.53686H8.36735ZM10.2041 34.0265C9.31973 34.0265 8.57143 33.1947 8.57143 32.2117C8.57143 31.2287 9.31973 30.397 10.2041 30.397H68.2313C69.1156 30.397 69.8639 31.2287 69.8639 32.2117C69.8639 33.1947 69.1156 34.0265 68.2313 34.0265H10.2041ZM10.2041 26.3894C9.31973 26.3894 8.57143 25.5577 8.57143 24.5747C8.57143 23.5917 9.31973 22.7599 10.2041 22.7599H68.2313C69.1156 22.7599 69.8639 23.5917 69.8639 24.5747C69.8639 25.5577 69.1156 26.3894 68.2313 26.3894H10.2041Z" fill="white"/>
</svg>
