<svg width="80" height="80" viewBox="0 0 80 80" fill="none" xmlns="http://www.w3.org/2000/svg">
<path d="M0 6.12256V57.5512H33.8775V65.5512H28.5714V68.0001H51.4286V65.5512H46.1225V57.5512H58.7756V69.3879C58.7756 71.8637 60.7898 73.8777 63.2655 73.8777H71.4287C73.9044 73.8777 75.9186 71.8637 75.9186 69.3879V57.5512H80V6.12256H0ZM43.6734 65.5512H36.3266V57.5512H43.6734V65.5512ZM73.4694 69.3879C73.4694 70.5133 72.5539 71.4287 71.4286 71.4287H63.2653C62.14 71.4287 61.2245 70.5132 61.2245 69.3879V36.9796H73.4694V69.3879ZM77.5511 55.1021H75.9184V34.5307H58.7755V55.1021H2.44891V8.57147H77.5509V55.1021H77.5511Z" fill="white"/>
<path d="M4.89795 11.0205V52.6532H56.7347V50.2041H7.34686V13.4694H41.4692L26.2428 28.696L27.9747 30.4277L44.9328 13.4694H50.105L34.8784 28.696L36.6101 30.4277L53.5684 13.4694H72.6531V32.4899H75.102V11.0205H4.89795Z" fill="white"/>
<path d="M65.9592 51.8368H63.5103V54.2857H65.9592V51.8368Z" fill="white"/>
<path d="M71.6735 51.8368H69.2246V54.2857H71.6735V51.8368Z" fill="white"/>
<path d="M65.9592 46.9388H63.5103V49.3877H65.9592V46.9388Z" fill="white"/>
<path d="M71.6735 46.9388H69.2246V49.3877H71.6735V46.9388Z" fill="white"/>
<path d="M65.9592 42.0409H63.5103V44.4898H65.9592V42.0409Z" fill="white"/>
<path d="M71.6735 42.0409H69.2246V44.4898H71.6735V42.0409Z" fill="white"/>
</svg>
