<svg width="80" height="80" viewBox="0 0 80 80" fill="none" xmlns="http://www.w3.org/2000/svg">
<path d="M68.077 3.80031C68.077 1.70475 66.3722 0 64.276 0H15.7231C13.6276 0 11.9229 1.70475 11.9229 3.80031V69.2067C11.9229 71.3029 13.6279 73.0076 15.7231 73.0076H64.2764C66.3726 73.0076 68.0773 71.3029 68.0773 69.2067L68.077 3.80031ZM63.3247 68.2567H16.6751V4.75229H63.3247V68.2567Z" fill="white"/>
<path d="M65.2135 75.2474H14.521C13.2077 75.2474 12.145 76.3118 12.145 77.6237C12.145 78.9357 13.2077 80.0001 14.521 80.0001H65.2135C66.5255 80.0001 67.5898 78.9357 67.5898 77.6237C67.5898 76.3118 66.5255 75.2474 65.2135 75.2474Z" fill="white"/>
<path d="M24.0259 56.1408C25.3391 56.1408 26.4018 55.0764 26.4018 53.7644V22.2774C26.4018 20.9655 25.3391 19.9011 24.0259 19.9011C22.7126 19.9011 21.6499 20.9655 21.6499 22.2774V53.7608C21.6496 55.0764 22.7126 56.1408 24.0259 56.1408Z" fill="white"/>
</svg>
