<svg width="82" height="80" viewBox="0 0 82 80" fill="none" xmlns="http://www.w3.org/2000/svg">
<path fill-rule="evenodd" clip-rule="evenodd" d="M41 60C52.3218 60 61.5 51.0457 61.5 40C61.5 28.9543 52.3218 20 41 20C29.6782 20 20.5 28.9543 20.5 40C20.5 51.0457 29.6782 60 41 60ZM41 53.3333C48.5478 53.3333 54.6667 47.3637 54.6667 40C54.6667 32.6362 48.5478 26.6667 41 26.6667C33.4521 26.6667 27.3333 32.6362 27.3333 40C27.3333 47.3637 33.4521 53.3333 41 53.3333Z" fill="#482A13"/>
<path d="M61.4999 16.6665C59.6129 16.6665 58.0833 18.1589 58.0833 19.9998C58.0833 21.8408 59.6129 23.3332 61.4999 23.3332C63.3869 23.3332 64.9166 21.8408 64.9166 19.9998C64.9166 18.1589 63.3869 16.6665 61.4999 16.6665Z" fill="#482A13"/>
<path fill-rule="evenodd" clip-rule="evenodd" d="M5.65099 14.2535C3.41663 18.5317 3.41663 24.1322 3.41663 35.3333V44.6666C3.41663 55.8676 3.41663 61.4683 5.65099 65.7463C7.61639 69.5096 10.7525 72.5693 14.6098 74.4866C18.995 76.6666 24.7356 76.6666 36.2166 76.6666H45.7833C57.2643 76.6666 63.005 76.6666 67.39 74.4866C71.2474 72.5693 74.3835 69.5096 76.3488 65.7463C78.5833 61.4683 78.5833 55.8676 78.5833 44.6666V35.3333C78.5833 24.1322 78.5833 18.5317 76.3488 14.2535C74.3835 10.4902 71.2474 7.43059 67.39 5.51312C63.005 3.33325 57.2643 3.33325 45.7833 3.33325H36.2166C24.7356 3.33325 18.995 3.33325 14.6098 5.51312C10.7525 7.43059 7.61639 10.4902 5.65099 14.2535ZM45.7833 9.99992H36.2166C30.3633 9.99992 26.3843 10.0051 23.3087 10.2503C20.3129 10.4891 18.7808 10.9219 17.7121 11.4532C15.1405 12.7315 13.0498 14.7712 11.7395 17.2801C11.195 18.3227 10.7513 19.8174 10.5066 22.7402C10.2553 25.7408 10.25 29.6227 10.25 35.3333V44.6666C10.25 50.3773 10.2553 54.2589 10.5066 57.2596C10.7513 60.1826 11.195 61.6773 11.7395 62.7199C13.0498 65.2286 15.1405 67.2683 17.7121 68.5466C18.7808 69.0779 20.3129 69.5109 23.3087 69.7496C26.3843 69.9946 30.3633 69.9999 36.2166 69.9999H45.7833C51.6367 69.9999 55.6154 69.9946 58.6911 69.7496C61.6872 69.5109 63.2192 69.0779 64.288 68.5466C66.8593 67.2683 68.95 65.2286 70.2603 62.7199C70.8049 61.6773 71.2487 60.1826 71.4934 57.2596C71.7445 54.2589 71.75 50.3773 71.75 44.6666V35.3333C71.75 29.6227 71.7445 25.7408 71.4934 22.7402C71.2487 19.8174 70.8049 18.3227 70.2603 17.2801C68.95 14.7712 66.8593 12.7315 64.288 11.4532C63.2192 10.9219 61.6872 10.4891 58.6911 10.2503C55.6154 10.0051 51.6367 9.99992 45.7833 9.99992Z" fill="#482A13"/>
</svg>
