<svg width="100" height="100" viewBox="0 0 100 100" fill="none" xmlns="http://www.w3.org/2000/svg">
<path d="M48.3333 33.3333C40.0667 33.3333 33.3333 40.0667 33.3333 48.3333C33.3333 56.6 40.0667 63.3333 48.3333 63.3333C56.6 63.3333 63.3333 56.6 63.3333 48.3333C63.3333 40.0667 56.6 33.3333 48.3333 33.3333ZM48.3333 36.6667C54.8 36.6667 60 41.8667 60 48.3333C60 54.8 54.8 60 48.3333 60C41.8667 60 36.6667 54.8 36.6667 48.3333C36.6667 41.8667 41.8667 36.6667 48.3333 36.6667ZM48.3333 0C47.41 0 46.6667 0.743333 46.6667 1.66667V6.75C25.01 7.61667 7.61333 25.01 6.75 46.6667H1.66667C0.743333 46.6667 0 47.41 0 48.3333C0 49.2567 0.743333 50 1.66667 50H6.75C7.61667 71.6567 25.01 89.0533 46.6667 89.9167V95C46.6667 95.9233 47.41 96.6667 48.3333 96.6667C49.2567 96.6667 50 95.9233 50 95V89.9167C71.6567 89.05 89.0533 71.6567 89.9167 50H95C95.9233 50 96.6667 49.2567 96.6667 48.3333C96.6667 47.41 95.9233 46.6667 95 46.6667H89.9167C89.05 25.01 71.6567 7.61333 50 6.75V1.66667C50 0.743333 49.2567 0 48.3333 0ZM46.6667 10.0833V15C46.6667 15.9233 47.41 16.6667 48.3333 16.6667C49.2567 16.6667 50 15.9233 50 15V10.0833C69.8533 10.9333 85.7333 26.8167 86.5833 46.6667H81.6667C80.7433 46.6667 80 47.41 80 48.3333C80 49.2567 80.7433 50 81.6667 50H86.5833C85.7333 69.8533 69.85 85.7333 50 86.5833V81.6667C50 80.7433 49.2567 80 48.3333 80C47.41 80 46.6667 80.7433 46.6667 81.6667V86.5833C26.8133 85.7333 10.9333 69.85 10.0833 50H15C15.9233 50 16.6667 49.2567 16.6667 48.3333C16.6667 47.41 15.9233 46.6667 15 46.6667H10.0833C10.9333 26.8133 26.8167 10.9333 46.6667 10.0833Z" fill="white"/>
</svg>
