<svg width="82" height="80" viewBox="0 0 82 80" fill="none" xmlns="http://www.w3.org/2000/svg">
<rect x="2" y="2" width="78" height="76" rx="13" stroke="#482A13" stroke-width="4"/>
<path d="M60.1931 37.1549C56.4288 37.1549 53.3794 40.1324 53.3794 43.8024C53.3794 47.4724 56.4314 50.4499 60.1931 50.4499C63.9574 50.4499 67.0068 47.4724 67.0068 43.8024C67.0068 42.5774 66.6686 41.4324 66.0766 40.4474L66.0946 40.4799C64.8953 38.4799 62.7018 37.1549 60.1931 37.1549ZM21.7941 37.1549C18.0298 37.1549 14.9804 40.1324 14.9804 43.8024C14.9804 47.4724 18.0323 50.4499 21.7941 50.4499C25.5584 50.4499 28.6078 47.4724 28.6078 43.8024C28.6078 42.5774 28.2695 41.4324 27.6776 40.4474L27.6955 40.4799C26.4963 38.4799 24.3028 37.1549 21.7941 37.1549ZM60.1931 31.1249C60.1957 31.1249 60.1957 31.1249 60.1983 31.1249C67.3733 31.1249 73.1901 36.7999 73.1901 43.7999C73.1901 50.7999 67.3733 56.4749 60.1983 56.4749C53.0233 56.4749 47.2064 50.7999 47.2064 43.7999C47.2064 41.4674 47.8521 39.2824 48.9771 37.4049L48.9438 37.4649C51.2295 33.6474 55.4089 31.1274 60.1931 31.1249ZM21.7941 31.1174C28.9716 31.1174 34.7911 36.7949 34.7911 43.7974C34.7911 50.7999 28.9716 56.4774 21.7941 56.4774C14.6165 56.4774 8.79707 50.7999 8.79707 43.7974C8.79707 41.4624 9.44282 39.2749 10.5703 37.3974L10.537 37.4574C12.8253 33.6399 17.0073 31.1174 21.7941 31.1174ZM41 22.0524C46.207 22.0549 51.1629 23.0924 55.6678 24.9649L55.4218 24.8749C47.2909 27.5999 41.4638 34.7999 41 43.3874L40.9974 43.4374C40.5362 34.7999 34.7065 27.5974 26.7243 24.9174L26.5757 24.8749C30.8346 23.0949 35.793 22.0599 40.9974 22.0574L41 22.0524ZM41.0205 15.9299C41.0154 15.9299 41.0077 15.9299 41.0026 15.9299C31.8673 15.9299 23.3905 18.6774 16.3923 23.3749L16.5384 23.2824H2.57275L8.85857 29.9524C4.99432 33.3924 2.58044 38.3249 2.58044 43.8074C2.58044 54.1524 11.1776 62.5399 21.7813 62.5399C26.8319 62.5399 31.4265 60.6374 34.8551 57.5274L34.8423 57.5374L40.9974 64.0724L47.1526 57.5424C50.5684 60.6399 55.1629 62.5424 60.2136 62.5424C70.8198 62.5424 79.417 54.1549 79.417 43.8074C79.417 38.3249 77.0031 33.3899 73.1543 29.9649L73.1389 29.9524L79.4247 23.2824H65.4949C58.6454 18.6799 50.1712 15.9324 41.0359 15.9324C41.0282 15.9324 41.0231 15.9324 41.0154 15.9324L41.0205 15.9299Z" fill="#482A13"/>
</svg>
