<svg width="100" height="85" viewBox="0 0 100 85" fill="none" xmlns="http://www.w3.org/2000/svg">
<path fill-rule="evenodd" clip-rule="evenodd" d="M87.5 37.671L50 75.7031L12.5 37.5142C8.01562 32.2176 6.25 28.6397 6.25 23.7415C6.25 14.6067 13.9219 6.38562 25 6.30859C34.1125 6.24484 44.4437 14.1551 50 20.1184C55.4094 14.3649 65.8875 6.30859 75 6.30859C85.7844 6.30859 93.75 14.6067 93.75 23.7415C93.75 28.6397 92.3531 32.4833 87.5 37.671ZM75 1.32812C64.5844 1.32812 56.7031 6.52375 50 11.9531C43.6156 6.19172 35.4156 1.32812 25 1.32812C10.3313 1.32812 0 12.0487 0 23.7415C0 30.0129 3.02188 34.5286 6.33125 38.7732L45.1844 78.3673C49.5437 82.2906 50.3688 82.2906 54.7281 78.3673L93.6687 38.7732C97.5625 34.5286 100 30.0129 100 23.7415C100 12.0487 89.6687 1.32812 75 1.32812Z" fill="white"/>
</svg>
