<svg width="82" height="80" viewBox="0 0 82 80" fill="none" xmlns="http://www.w3.org/2000/svg">
<path fill-rule="evenodd" clip-rule="evenodd" d="M11.9584 40C11.9584 24.3519 24.9608 11.6667 41 11.6667C57.0392 11.6667 70.0416 24.3519 70.0416 40C70.0416 55.648 57.0392 68.3333 41 68.3333C35.2866 68.3333 29.9685 66.7273 25.4814 63.9537C24.6463 63.4377 23.6231 63.2997 22.6758 63.5753L12.8387 66.4397L16.5425 57.9843C16.9803 56.985 16.8912 55.8403 16.3039 54.917C13.5494 50.5867 11.9584 45.4797 11.9584 40ZM41 5C21.1868 5 5.12503 20.67 5.12503 40C5.12503 46.127 6.74159 51.8943 9.58252 56.909L3.69157 70.3567C3.1708 71.5457 3.40163 72.921 4.28385 73.8857C5.16607 74.8507 6.54056 75.2307 7.81043 74.8607L23.1834 70.385C28.435 73.3217 34.5209 75 41 75C60.8132 75 76.875 59.33 76.875 40C76.875 20.67 60.8132 5 41 5ZM48.8327 47.2747L44.3425 50.3603C42.2395 49.1917 39.9145 47.5603 37.5823 45.285C35.1578 42.9197 33.3604 40.4777 32.035 38.2377L34.8886 35.8747C36.1131 34.8607 36.4483 33.1511 35.6939 31.7676L32.058 25.1009C31.5684 24.2032 30.6856 23.5727 29.6606 23.3885C28.6355 23.2043 27.5804 23.4867 26.7951 24.1553L25.7171 25.0732C23.1247 27.2805 21.5916 30.9077 22.8623 34.5803C24.1796 38.3877 26.991 44.38 32.7505 49.999C38.9469 56.0443 45.2411 58.425 48.9218 59.3497C51.8875 60.0943 54.694 59.096 56.6715 57.524L58.6925 55.9173C59.5569 55.2303 60.0233 54.1747 59.942 53.0897C59.8603 52.0047 59.2412 51.0267 58.2832 50.4697L52.549 47.1363C51.3907 46.4633 49.9352 46.5173 48.8327 47.2747Z" fill="#482A13"/>
</svg>
